<svg version="1.2" baseProfile="tiny-ps" xmlns="http://www.w3.org/2000/svg" viewBox="0 0 983 1519" width="983" height="1519">
	<title>datto-logo-blue-datto</title>
	<style>
		tspan { white-space:pre }
		.shp0 { fill: #199ed9 } 
	</style>
	<g id="Layer">
		<path id="Layer" fill-rule="evenodd" class="shp0" d="M755.87 1.81L982.81 0.91L982.81 1493.03L755 1493.03L755 1409.84C680.83 1482.18 587.73 1518.34 481.92 1518.34C199.84 1518.34 0.89 1283.23 0.89 951.35C0.89 621.28 195.32 393.42 475.59 393.42C586.8 393.42 668.17 425.06 755.87 499.19L755.87 1.81ZM730.57 1156.62C746.82 1118.66 753.15 1061.65 753.15 970.34C753.15 854.58 748.67 798.56 735.09 757.86C710.66 674.63 613.03 611.35 511.75 611.35C344.48 611.35 240.53 745.16 240.53 959.48C240.53 1165.68 343.61 1298.62 504.5 1298.62C606.71 1298.62 698.93 1239.81 730.57 1156.62Z" />
	</g>
</svg>