<svg xmlns="http://www.w3.org/2000/svg" viewBox="0 0 2048.25 2048.25">
<title>AdminP</title>
<g id="uniED71"><path d="M1408 1024q0 -26 -10 -49.5t-27.5 -41t-41 -27.5t-49.5 -10v255q27 0 50 -10t40.5 -27t27.5 -40t10 -50zM2024 938l-63 -241l-212 28q-17 -26 -35.5 -50.5t-40.5 -45.5l74 -192l-216 -126l-128 168q-60 -15 -123 -15v210q72 0 135.5 27.5t110.5 74.5t74.5 110.5 t27.5 135.5t-27.5 135.5t-74.5 111t-110.5 75t-135.5 27.5v216h5l79 180l241 -64l-27 -205q27 -17 52 -37.5t48 -43.5l188 72l125 -215l-167 -129q13 -59 13 -124zM769 1198q0 -72 -38 -101t-105 -29q-13 0 -25 0.5t-25 0.5v251q17 1 33.5 2t33.5 1q126 0 126 -125zM64 1776 l1152 205v-1914l-1152 199v1510zM427 661l149 -18v288q75 -2 142.5 9.5t117.5 43.5t79.5 88t29.5 144q0 122 -65 186t-186 64q-66 0 -133 -5.5t-134 -9.5v-790z" fill="#58595B" transform="scale(1,-1) translate(0, -2048.25)"/></g>
</svg>