<svg id="Layer_1" data-name="Layer 1" xmlns="http://www.w3.org/2000/svg" viewBox="0 0 24 24"><defs><style>.cls-1{fill:#2b7cd3;}.cls-2{fill:#41a5ee;}.cls-3{fill:#103f91;}.cls-4{fill:none;}.cls-5{opacity:0.5;}.cls-6{fill:#185abd;}.cls-7{fill:#fff;}</style></defs><title>Visio_24x</title><path class="cls-1" d="M24,6.17v9.66A1.17,1.17,0,0,1,22.83,17H13.17A1.17,1.17,0,0,1,12,15.83V6.17A1,1,0,0,1,12,6a1.17,1.17,0,0,1,1.16-1h9.66A1.17,1.17,0,0,1,24,6.17Z"/><path class="cls-2" d="M17.66,6.83,15,9.48l-2.18,2.18A1.13,1.13,0,0,1,12,12a1.16,1.16,0,0,1-.83-.34L6.34,6.83A1.16,1.16,0,0,1,6,6a1.13,1.13,0,0,1,.34-.82L11.17.34a1.18,1.18,0,0,1,1.65,0L17.48,5l.18.18A1.18,1.18,0,0,1,17.66,6.83Z"/><path class="cls-3" d="M18,17.5A5.49,5.49,0,0,1,7.61,20,5.4,5.4,0,0,1,7,17.5,5.49,5.49,0,0,1,12,12a4.07,4.07,0,0,1,.5,0A5.52,5.52,0,0,1,18,17,4.07,4.07,0,0,1,18,17.5Z"/><rect class="cls-4" width="24" height="24"/><path class="cls-5" d="M15,7.17V18.65A1.5,1.5,0,0,1,13.6,20h-6A5.4,5.4,0,0,1,7,17.5,5.49,5.49,0,0,1,12,12v0a1.16,1.16,0,0,1-.83-.34L6.34,6.83A1.16,1.16,0,0,1,6,6h7.83A1.18,1.18,0,0,1,15,7.17Z"/><rect id="Back_Plate" data-name="Back Plate" class="cls-6" y="5" width="14" height="14" rx="1.17"/><path class="cls-7" d="M6.6,13.29c.22.67.36,1.09.4,1.27H7c0-.18.18-.63.43-1.36L9.25,8H10.9l-3,8H6.1l-3-8H4.8Z"/></svg>